<svg width="100" height="100" viewBox="0 0 100 100" fill="none" xmlns="http://www.w3.org/2000/svg">
<rect width="100" height="100" rx="10" fill="#00472F"/>
<path d="M13.3864 34.9901V28.3636H48.2017V34.9901H34.7145V72H26.8736V34.9901H13.3864ZM54.9134 72V28.3636H71.6179C74.7713 28.3636 77.392 28.8608 79.4801 29.8551C81.5824 30.8352 83.152 32.1776 84.1889 33.8821C85.2401 35.5866 85.7656 37.5185 85.7656 39.6776C85.7656 41.4531 85.4247 42.973 84.7429 44.2372C84.0611 45.4872 83.1449 46.5028 81.9943 47.2841C80.8438 48.0653 79.5582 48.6264 78.1378 48.9673V49.3935C79.6861 49.4787 81.1705 49.9545 82.5909 50.821C84.0256 51.6733 85.1974 52.8807 86.1065 54.4432C87.0156 56.0057 87.4702 57.8949 87.4702 60.1108C87.4702 62.3693 86.9233 64.4006 85.8295 66.2045C84.7358 67.9943 83.0881 69.4077 80.8864 70.4446C78.6847 71.4815 75.9148 72 72.5767 72H54.9134ZM62.8182 65.3949H71.3196C74.1889 65.3949 76.2557 64.848 77.5199 63.7543C78.7983 62.6463 79.4375 61.2259 79.4375 59.4929C79.4375 58.2003 79.1179 57.0355 78.4787 55.9986C77.8395 54.9474 76.9304 54.1236 75.7514 53.527C74.5724 52.9162 73.1662 52.6108 71.5327 52.6108H62.8182V65.3949ZM62.8182 46.9219H70.6378C72.0014 46.9219 73.2301 46.6733 74.3239 46.1761C75.4176 45.6648 76.277 44.9474 76.902 44.0241C77.5412 43.0866 77.8608 41.9787 77.8608 40.7003C77.8608 39.0099 77.2642 37.6179 76.071 36.5241C74.892 35.4304 73.1378 34.8835 70.8082 34.8835H62.8182V46.9219Z" fill="white"/>
</svg>
